#!OML:ASF I:\salsa\salsa 7_09\Patient 1\Session 1\dancerfemale.ASF
:FULLY-SPECIFIED
:DEGREES
2459
root -6.84985 15.6423 -6.61499 -2164.53 67.011 355.675
lowerback 8.26685 4.97963 1.17245
upperback -4.86982 7.07832 2.02525
thorax -9.95449 3.44413 0.317264
lowerneck 3.33263 -6.5504 -10.9626
upperneck 10.7743 -9.28282 6.93957
head 3.5116 -4.74078 3.64139
rclavicle 1.55499e-013 3.61788e-014
rhumerus 1.95126 -1.00664 -80.34
rradius 73.4597
rwrist 2.07339
rhand 7.0797 50.2511
rfingers 7.12502
rthumb 32.3515 383.116
lclavicle 1.55499e-013 3.61788e-014
lhumerus -53.316 23.2075 59.1535
lradius 114.526
lwrist -17.326
lhand -22.6745 -324.215
lfingers 7.12502
lthumb 3.75739 -2454.27
rfemur -11.2451 -7.50992 21.8478
rtibia 49.463
rfoot -22.1196 -15.2985
rtoes -20.2383
lfemur -20.2063 11.2551 -19.0158
ltibia 50.6226
lfoot -28.3913 3.42205
ltoes -26.1701
2460
root -6.75312 15.6573 -6.69669 -2154.61 68.9074 366.853
lowerback 9.5613 4.84696 -1.46419
upperback -4.45628 6.38305 0.50533
thorax -10.367 3.19738 0.176487
lowerneck 3.29634 -6.86577 -11.2431
upperneck 9.55232 -9.75219 7.67048
head 3.23893 -4.96538 3.89887
rclavicle 1.20265e-014 3.18055e-015
rhumerus 3.23784 -1.21688 -77.3804
rradius 73.514
rwrist 1.78122
rhand 6.92646 50.0792
rfingers 7.12502
rthumb 32.2057 382.915
lclavicle 1.20265e-014 3.18055e-015
lhumerus -49.4437 22.6663 62.7048
lradius 114.471
lwrist -17.5904
lhand -23.2282 -324.098
lfingers 7.12502
lthumb 3.22275 -2454.14
rfemur -14.7277 -10.6801 16.6226
rtibia 55.6348
rfoot -17.8997 -17.2293
rtoes -17.986
lfemur -17.9774 8.27941 -24.2927
ltibia 47.7586
lfoot -27.9564 4.46499
ltoes -25.3584
2461
root -6.66195 15.6279 -6.74726 -2145.92 70.2887 376.51
lowerback 10.7866 4.68707 -3.29783
upperback -4.01555 5.75447 -0.63558
thorax -10.6561 2.95725 0.00762947
lowerneck 3.31121 -7.13884 -11.6843
upperneck 8.16174 -10.1639 8.56258
head 2.92426 -5.16605 4.23838
rclavicle -1.39646e-014 1.74931e-014
rhumerus 4.63157 -2.13988 -74.7506
rradius 73.6074
rwrist 1.88218
rhand 6.85463 50.3659
rfingers 7.12502
rthumb 32.1373 383.188
lclavicle -1.39646e-014 1.74931e-014
lhumerus -45.8794 21.794 66.168
lradius 114.455
lwrist -17.9256
lhand -22.9914 -324.086
lfingers 7.12502
lthumb 3.45143 -2454.13
rfemur -18.3931 -13.7431 12.8353
rtibia 61.2936
rfoot -16.9784 -15.6931
rtoes -17.5426
lfemur -16.2204 4.61655 -28.305
ltibia 45.4807
lfoot -27.3361 6.06758
ltoes -23.3247
2462
root -6.57375 15.5888 -6.78623 -2137.69 71.5528 385.217
lowerback 11.878 4.44755 -4.32674
upperback -3.71237 5.13768 -1.56415
thorax -10.9508 2.68704 -0.366076
lowerneck 3.04001 -7.52241 -12.1878
upperneck 7.09104 -10.6781 9.24115
head 2.76371 -5.41888 4.50097
rclavicle -5.21313e-014 -3.18055e-015
rhumerus 6.03144 -3.42473 -72.0035
rradius 73.574
rwrist 2.14725
rhand 6.67011 50.8865
rfingers 7.12502
rthumb 31.9616 383.673
lclavicle -5.21313e-014 -3.18055e-015
lhumerus -42.8086 20.4279 69.5272
lradius 114.614
lwrist -17.9549
lhand -22.6956 -324.002
lfingers 7.12502
lthumb 3.73707 -2454.05
rfemur -22.1683 -16.6572 10.2435
rtibia 65.849
rfoot -16.3974 -15.631
rtoes -14.6813
lfemur -15.0892 2.48721 -31.249
ltibia 43.7344
lfoot -26.6691 6.35318
ltoes -22.2804
2463
root -6.48611 15.5639 -6.80626 -2131.48 72.6495 391.516
lowerback 12.8544 4.1883 -4.46107
upperback -3.49581 4.65578 -2.21236
thorax -11.222 2.4369 -0.949903
lowerneck 3.07489 -7.75336 -12.6988
upperneck 5.54323 -10.9993 10.1561
head 2.40967 -5.5787 4.86806
rclavicle -5.1361e-014 -1.90833e-014
rhumerus 7.46959 -4.59391 -68.9671
rradius 73.8159
rwrist 2.17145
rhand 6.16228 51.1064
rfingers 7.12502
rthumb 31.4779 383.797
lclavicle -5.1361e-014 -1.90833e-014
lhumerus -40.2028 18.8286 72.6234
lradius 114.921
lwrist -17.8248
lhand -22.1505 -324.157
lfingers 7.12502
lthumb 4.26344 -2454.22
rfemur -25.7232 -18.7012 9.26345
rtibia 68.7342
rfoot -15.7263 -17.2067
rtoes -11.9257
lfemur -14.1835 1.2417 -32.8528
ltibia 42.2938
lfoot -26.2 5.92414
ltoes -21.6004
2464
root -6.37433 15.5642 -6.81362 -2124.41 73.1791 398.63
lowerback 13.5093 3.93914 -4.83036
upperback -3.27108 4.16048 -2.94593
thorax -11.3155 2.19853 -1.46485
lowerneck 2.80564 -8.03226 -12.9591
upperneck 4.40685 -11.3317 10.7108
head 2.20143 -5.73694 5.06676
rclavicle 3.2874e-014 -1.59028e-015
rhumerus 8.91725 -6.02838 -66.3174
rradius 74.4304
rwrist 2.27551
rhand 5.83625 50.9491
rfingers 7.12502
rthumb 31.1673 383.58
lclavicle 3.2874e-014 -1.59028e-015
lhumerus -37.9914 16.7597 75.6565
lradius 115.348
lwrist -16.9311
lhand -22.8794 -322.881
lfingers 7.12502
lthumb 3.55956 -2452.93
rfemur -28.7228 -20.4042 8.10431
rtibia 69.8838
rfoot -16.063 -15.7992
rtoes -10.4417
lfemur -13.1015 0.801701 -34.5297
ltibia 40.7682
lfoot -25.757 4.81341
ltoes -19.8064
2465
root -6.24642 15.5897 -6.81463 -2116.19 73.2652 406.71
lowerback 13.8694 3.61102 -5.46708
upperback -3.16384 3.52583 -3.73595
thorax -11.3882 1.91671 -1.84499
lowerneck 2.54956 -8.24062 -13.0853
upperneck 3.57203 -11.5605 10.9788
head 2.04688 -5.84426 5.15871
rclavicle -9.24349e-015 2.38542e-014
rhumerus 10.4319 -7.67892 -64.1991
rradius 74.6913
rwrist 2.46192
rhand 5.49045 50.8159
rfingers 7.12502
rthumb 30.8377 383.384
lclavicle -9.24349e-015 2.38542e-014
lhumerus -36.2823 14.9041 78.2169
lradius 115.611
lwrist -16.2764
lhand -23.5486 -322.407
lfingers 7.12502
lthumb 2.91328 -2452.45
rfemur -31.3164 -22.0979 6.74662
rtibia 69.4303
rfoot -16.3014 -14.5597
rtoes -10.6605
lfemur -11.905 0.924349 -36.368
ltibia 38.7478
lfoot -24.9252 3.26529
ltoes -18.3042
2466
root -6.14053 15.6496 -6.80662 -2112.34 73.8626 409.905
lowerback 14.2968 3.28436 -4.83223
upperback -3.31727 3.13623 -4.04004
thorax -11.7504 1.67865 -2.47903
lowerneck 2.10227 -8.35177 -13.1191
upperneck 3.14449 -11.6416 10.9661
head 2.00456 -5.87371 5.14231
rclavicle 9.97651e-015 -3.77691e-014
rhumerus 12.1824 -9.37426 -62.2638
rradius 74.4736
rwrist 2.53665
rhand 4.93108 50.8487
rfingers 7.12502
rthumb 30.3042 383.317
lclavicle 9.97651e-015 -3.77691e-014
lhumerus -34.935 13.3816 80.4567
lradius 115.644
lwrist -16.4516
lhand -23.5767 -323.142
lfingers 7.12502
lthumb 2.8862 -2453.18
rfemur -33.9424 -22.3568 7.68875
rtibia 67.5161
rfoot -16.8373 -14.4511
rtoes -10.9282
lfemur -11.0515 1.86437 -36.3943
ltibia 36.452
lfoot -23.9484 1.43257
ltoes -18.184
2467
root -5.9968 15.7397 -6.78799 -2107.77 74.2008 414.155
lowerback 14.4077 2.97284 -4.60829
upperback -3.24152 2.7316 -4.35763
thorax -11.7016 1.4622 -2.85752
lowerneck 1.39319 -8.47704 -13.062
upperneck 3.00428 -11.7215 10.8615
head 2.07859 -5.89483 5.0657
rclavicle 2.76435e-014 -2.34566e-014
rhumerus 14.0866 -11.4068 -60.5446
rradius 74.3063
rwrist 2.76261
rhand 4.82491 50.8778
rfingers 7.12502
rthumb 30.203 383.327
lclavicle 2.76435e-014 -2.34566e-014
lhumerus -33.7514 11.9957 82.5147
lradius 115.595
lwrist -17.1958
lhand -22.8243 -324.392
lfingers 7.12502
lthumb 3.61277 -2454.44
rfemur -35.2568 -22.2423 7.95222
rtibia 64.4536
rfoot -17.8611 -15.0295
rtoes -11.2497
lfemur -9.39348 3.39337 -36.6545
ltibia 33.8229
lfoot -23.2522 -0.795809
ltoes -19.0319
2468
root -5.845 15.7992 -6.76219 -2102.97 74.4737 418.402
lowerback 14.1154 2.66571 -4.43245
upperback -3.29354 2.35215 -4.64836
thorax -11.57 1.26454 -3.16885
lowerneck 0.944869 -8.60057 -12.9472
upperneck 2.93069 -11.8284 10.7059
head 2.12634 -5.93634 4.97453
rclavicle 2.88859e-014 -3.37934e-014
rhumerus 15.6684 -13.5038 -58.827
rradius 74.1653
rwrist 2.99028
rhand 4.78424 51.1853
rfingers 7.12502
rthumb 30.1642 383.628
lclavicle 2.88859e-014 -3.37934e-014
lhumerus -33.0757 10.4844 84.4961
lradius 115.561
lwrist -17.7869
lhand -22.8903 -324.91
lfingers 7.12502
lthumb 3.549 -2454.96
rfemur -36.438 -21.6011 8.2399
rtibia 60.8198
rfoot -19.2346 -17.0188
rtoes -11.0724
lfemur -8.08233 5.23441 -36.8147
ltibia 31.4125
lfoot -22.6114 -3.31692
ltoes -20.1561
2469
root -5.68451 15.8635 -6.72279 -2098.29 74.953 422.286
lowerback 13.5352 2.26392 -4.11931
upperback -3.58178 1.88602 -4.82693
thorax -11.5411 1.01984 -3.41403
lowerneck 0.968774 -8.60045 -12.75
upperneck 2.86474 -11.8179 10.4735
head 2.07574 -5.93225 4.8778
rclavicle 2.15433e-014 -4.09496e-014
rhumerus 16.9174 -15.2985 -57.2551
rradius 73.9091
rwrist 3.09693
rhand 4.87799 51.5652
rfingers 7.12502
rthumb 30.2536 384.024
lclavicle 2.15433e-014 -4.09496e-014
lhumerus -33.1262 9.42207 86.1348
lradius 115.369
lwrist -18.4924
lhand -22.9899 -326.767
lfingers 7.12502
lthumb 3.45282 -2456.81
rfemur -37.3822 -20.9837 8.86027
rtibia 56.8864
rfoot -19.8038 -19.4163
rtoes -13.4152
lfemur -7.05045 7.17999 -36.5652
ltibia 28.9991
lfoot -21.7746 -6.08519
ltoes -20.6105
